<svg version="1.1" xmlns="http://www.w3.org/2000/svg" style="display: block;" viewBox="0 0 2048 2048" width="1024" height="1024" preserveAspectRatio="none"><path transform="translate(0,0)" fill="#2B2B2B" d="M 535.245 256.42 C 555.064 254.519 583.522 256.024 603.871 256.054 L 728.056 256.145 L 1121.59 256.122 L 1387.96 256.095 L 1466.44 256.025 C 1492.67 256.012 1514.9 255.388 1541.06 259.413 C 1593.59 267.169 1643.03 289.024 1684.13 322.65 C 1747.45 374.172 1787.14 449.192 1794.11 530.527 C 1796.04 552.199 1795.33 579.683 1795.34 601.75 L 1795.35 709.172 L 1795.31 1032.5 L 1795.34 1302.86 C 1795.32 1350.64 1798.19 1423.36 1790.55 1467.57 C 1780.63 1522.59 1756.45 1574.04 1720.42 1616.78 C 1664.97 1682.82 1593.32 1719.25 1507.74 1726.94 L 831.221 1727.05 L 638.036 1727.05 C 614.224 1727.07 589.685 1726.62 565.924 1727.12 C 489.549 1728.71 421.766 1702.61 363.779 1653.01 C 299.794 1597.94 260.138 1519.83 253.438 1435.68 C 251.872 1413.81 252.507 1387.46 252.524 1365.2 L 252.493 1256.6 L 252.431 902.87 L 252.552 651.02 C 252.639 607.836 250.034 544.717 257.163 504.503 C 266.715 450.784 290.505 400.612 326.052 359.22 C 380.654 296.158 452.538 262.419 535.245 256.42 z"/><path transform="translate(0,0)" fill="#EE163B" d="M 888.79 442.59 C 896.494 441.854 903.473 439.769 907.765 447.564 C 907.838 450.753 907.288 453.303 905.427 455.974 C 896.618 468.615 888.543 482.011 880.486 495.159 L 797.843 629.775 L 768.541 677.084 C 764.2 684.088 754.304 704.396 745.775 704.226 C 735.593 699.137 713.654 650.879 704.849 636.88 C 670.705 663.42 648.701 684.315 622.944 719.926 C 558.458 809.084 531.832 925.972 549.015 1034.34 C 566.103 1141.99 625.863 1238.22 714.787 1301.26 C 833.81 1387.41 987.736 1413.44 1131.37 1390.46 C 1262.85 1369.42 1392.57 1310.22 1472.73 1200.01 C 1535.8 1112.92 1558.61 997.835 1541.52 892.434 C 1496.03 611.924 1156.24 512.389 911.955 553.071 C 927.41 530.597 940.878 505.952 956.619 482.82 C 1025.18 477.356 1094.17 481.2 1161.7 494.247 C 1293.2 518.976 1423.48 584.746 1506.42 691.717 C 1590.27 799.867 1623.87 928.904 1607.06 1064.09 C 1591.22 1193.03 1524.63 1310.34 1422.03 1390.04 C 1162.36 1591.01 736.626 1559.73 532.059 1292.85 C 445.075 1177.38 407.059 1032.29 426.241 889.003 C 440.956 778.349 485.656 679.816 564.046 599.202 C 586.435 576.178 608.51 558.414 633.925 538.98 C 624.675 527.056 584.206 481.277 580.311 471.624 C 581.012 466.16 585.075 464.196 590.229 463.735 C 689.467 454.855 789.532 450.558 888.79 442.59 z"/><path transform="translate(0,0)" fill="rgb(255,255,254)" d="M 1006.6 633.438 C 1107.76 628.955 1278.33 645.484 1360.84 714.594 C 1373.34 725.319 1385.78 743.807 1385.59 760.739 C 1385.22 794.655 1344.86 821.27 1318.14 833.709 C 1227.41 875.948 1121.22 887.217 1022.34 887.125 C 1004.8 887.069 987.267 886.431 969.771 885.212 C 889.785 880.299 751.377 859.174 691.489 797.911 C 682.29 788.5 673.937 770.948 675.577 757.507 C 678.337 734.878 692.782 721.14 708.989 707.289 C 715.315 715.954 727.836 730.08 736.547 735.901 C 763.787 754.105 773.29 728.896 785.195 709.896 L 817.245 659.15 C 878.728 641.672 942.975 635.694 1006.6 633.438 z"/><path transform="translate(0,0)" fill="rgb(255,255,254)" d="M 1384.77 1019.93 C 1386.68 1030.28 1386.18 1154.96 1384.28 1164.32 C 1379.92 1185.84 1358.2 1202.89 1340.99 1214.14 C 1223.47 1290.99 991.499 1293.37 857.463 1265.18 C 801.723 1253.45 715.17 1228.31 682.717 1178.63 C 673.824 1159.8 676.35 1132.46 676.419 1111.58 L 676.926 1022.01 C 677.817 1023.05 678.732 1024.06 679.67 1025.06 C 689.96 1035.93 704.457 1045.8 717.297 1053.45 C 798.078 1101.53 910.556 1117.32 1002.71 1120.21 C 1118.15 1123.82 1297.21 1104.22 1384.77 1019.93 z"/><path transform="translate(0,0)" fill="rgb(255,255,254)" d="M 1384.66 824.742 C 1386.7 832.137 1385.89 953.658 1383.95 962.679 C 1379.26 984.451 1362.31 999.631 1344.52 1011.49 C 1229.24 1088.34 1002.32 1093.62 870.344 1067.58 C 811.408 1055.95 717.927 1032.1 682.98 980.103 C 672.894 961.478 675.754 935.121 675.783 914.161 L 675.944 827.136 C 688.747 842.974 709.204 856.909 727.241 866.011 C 823.814 914.739 947.637 928.388 1054.5 925.886 C 1155.46 923.522 1311.1 900.588 1384.66 824.742 z"/></svg>